Coordinates
version=1
nRows=9
nColumns=24
inDegrees=yes

Units are S.I. units (second, meters, Newtons, ...)
Angles are in degrees.

endheader
time	pelvis_tilt	pelvis_list	pelvis_rotation	pelvis_tx	pelvis_ty	pelvis_tz	hip_flexion_r	hip_adduction_r	hip_rotation_r	knee_angle_r	ankle_angle_r	subtalar_angle_r	mtp_angle_r	hip_flexion_l	hip_adduction_l	hip_rotation_l	knee_angle_l	ankle_angle_l	subtalar_angle_l	mtp_angle_l	lumbar_extension	lumbar_bending	lumbar_rotation
      4.48000000	    -12.92071441	      6.78095455	      2.97047771	     -1.62458962	     -0.03391727	      2.04461230	     16.76955615	    -12.46825587	    -11.97080047	    -58.90317171	    -22.53583248	     -9.48953789	     25.60484332	     30.34594734	     11.64998177	     -5.96555482	    -23.08087020	     -2.23653319	     -6.86610237	     17.24512456	      9.59029826	     -9.19268020	     -2.07614526
      4.49000000	    -12.82567288	      6.81931921	      2.91762565	     -1.61181197	     -0.03176284	      2.04384150	     18.47159378	    -12.34026390	    -11.03794948	    -60.23146510	    -21.08407297	    -10.32588281	     25.59138017	     28.98949289	     11.68940024	     -6.10801932	    -22.43032330	     -1.59337220	     -6.42456763	     17.65524695	      9.43583524	     -9.18307408	     -2.31004383
      4.50000000	    -12.73687119	      6.80359754	      2.96322855	     -1.59910126	     -0.02962674	      2.04296987	     20.11647476	    -12.16701555	    -10.27557251	    -61.23188910	    -19.64256602	    -10.79480894	     25.69254393	     27.58410565	     11.75393524	     -6.04765971	    -21.67396946	     -1.06768546	     -6.12445504	     17.90357341	      9.27235072	     -9.13452113	     -2.68030226
      4.51000000	    -12.63946728	      6.68255951	      2.95475692	     -1.58654906	     -0.02754141	      2.04208862	     21.73365399	    -11.82889510	     -9.49987642	    -61.91850227	    -18.16968187	    -10.86984592	     25.90450933	     26.16073491	     11.71801844	     -5.90130119	    -20.87083125	     -0.57730468	     -5.99114150	     18.07595561	      9.09185892	     -8.94382156	     -2.95214804
      4.52000000	    -12.54276885	      6.55842735	      2.97592457	     -1.57408378	     -0.02556887	      2.04120106	     23.28900815	    -11.49169574	     -8.83542056	    -62.30477076	    -16.66461684	    -10.78199352	     26.27072557	     24.71961936	     11.70040529	     -5.69084888	    -20.01442134	     -0.14627951	     -5.92286760	     18.17424765	      8.90214756	     -8.75803894	     -3.25299138
      4.53000000	    -12.38393736	      6.34965712	      3.00609792	     -1.56174370	     -0.02357434	      2.04025831	     24.67886718	    -11.05364528	     -8.26947240	    -62.32386318	    -15.17154865	    -10.57817641	     27.18259255	     23.21603747	     11.61840022	     -5.34350901	    -19.14162645	      0.17738261	     -6.01713498	     18.04150545	      8.62986614	     -8.47461568	     -3.54931161
      4.54000000	    -12.32516258	      6.00789489	      3.17089475	     -1.54958972	     -0.02185971	      2.03921218	     26.07198338	    -10.53151506	     -7.94020032	    -62.05110916	    -13.60984740	    -10.31156162	     27.69825793	     21.89108838	     11.43000953	     -4.87247113	    -18.39948304	      0.61854186	     -5.95542767	     17.93390044	      8.43429820	     -8.08893491	     -4.00699802
      4.55000000	    -12.20886944	      5.61844836	      3.34857675	     -1.53750813	     -0.02018913	      2.03810058	     27.30670801	     -9.98518962	     -7.73447766	    -61.45663058	    -12.13120662	    -10.06298500	     28.20888131	     20.50929101	     11.20195158	     -4.31057507	    -17.64361883	      0.98380845	     -6.06069563	     17.64276451	      8.17444291	     -7.64304561	     -4.44788323
      4.56000000	    -12.03903670	      5.16917530	      3.53628326	     -1.52551208	     -0.01856638	      2.03697894	     28.38431581	     -9.39918456	     -7.66292344	    -60.51921772	    -10.94852069	    -10.02408144	     29.12598837	     19.10391460	     10.90592803	     -3.67498888	    -16.97661534	      1.62111040	     -6.04827091	     15.87090883	      7.85065982	     -7.13272981	     -4.85911389
